<svg width="14" height="14" viewBox="0 0 14 14" fill="none" xmlns="http://www.w3.org/2000/svg">
<path fill-rule="evenodd" clip-rule="evenodd" d="M10 5.99988C10 8.20902 8.20914 9.99988 6 9.99988C3.79086 9.99988 2 8.20902 2 5.99988C2 3.79074 3.79086 1.99988 6 1.99988C8.20914 1.99988 10 3.79074 10 5.99988ZM9.16437 9.87135C8.30243 10.5767 7.20063 10.9999 6 10.9999C3.23858 10.9999 1 8.7613 1 5.99988C1 3.23845 3.23858 0.999878 6 0.999878C8.76142 0.999878 11 3.23845 11 5.99988C11 7.20051 10.5768 8.30231 9.87147 9.16424L12.3536 11.6463C12.5488 11.8416 12.5488 12.1582 12.3536 12.3534C12.1583 12.5487 11.8417 12.5487 11.6464 12.3534L9.16437 9.87135Z" fill="#CFD4DF"/>
</svg>
